<?xml version="1.0" standalone="no"?><!DOCTYPE svg PUBLIC "-//W3C//DTD SVG 1.1//EN" "http://www.w3.org/Graphics/SVG/1.1/DTD/svg11.dtd"><svg t="1580534803361" class="icon" viewBox="0 0 1024 1024" version="1.1" xmlns="http://www.w3.org/2000/svg" p-id="2787" xmlns:xlink="http://www.w3.org/1999/xlink" width="200" height="200"><defs><style type="text/css">html, * { user-select: text !important; }
</style></defs><path d="M460.31 477.54H176c-61.75 0-112-50.25-112-112V176c0-61.75 50.25-112 112-112h189.54c61.75 0 112 50.25 112 112v284.31c0 9.52-7.72 17.23-17.23 17.23zM176 98.46c-42.76 0-77.54 34.78-77.54 77.54v189.54c0 42.76 34.78 77.54 77.54 77.54h267.08V176c0-42.76-34.78-77.54-77.54-77.54H176zM848 477.54H563.69c-9.52 0-17.23-7.71-17.23-17.23V176c0-61.75 50.25-112 112-112H848c61.75 0 112 50.25 112 112v189.54c0 61.75-50.25 112-112 112z m-267.08-34.46H848c42.76 0 77.54-34.78 77.54-77.54V176c0-42.76-34.78-77.54-77.54-77.54H658.46c-42.76 0-77.54 34.78-77.54 77.54v267.08zM365.54 960H176c-61.75 0-112-50.25-112-112V658.46c0-61.75 50.25-112 112-112h284.31c9.52 0 17.23 7.71 17.23 17.23V848c0 61.75-50.25 112-112 112zM176 580.92c-42.76 0-77.54 34.78-77.54 77.54V848c0 42.76 34.78 77.54 77.54 77.54h189.54c42.76 0 77.54-34.78 77.54-77.54V580.92H176zM848 960H658.46c-61.75 0-112-50.25-112-112V563.69c0-9.52 7.72-17.23 17.23-17.23H848c61.75 0 112 50.25 112 112V848c0 61.75-50.25 112-112 112zM580.92 580.92V848c0 42.76 34.78 77.54 77.54 77.54H848c42.76 0 77.54-34.78 77.54-77.54V658.46c0-42.76-34.78-77.54-77.54-77.54H580.92z" p-id="2788" fill="#dbdbdb"></path></svg>