<?xml version="1.0" standalone="no"?><!DOCTYPE svg PUBLIC "-//W3C//DTD SVG 1.1//EN" "http://www.w3.org/Graphics/SVG/1.1/DTD/svg11.dtd"><svg t="1580534698886" class="icon" viewBox="0 0 1024 1024" version="1.1" xmlns="http://www.w3.org/2000/svg" p-id="1290" xmlns:xlink="http://www.w3.org/1999/xlink" width="200" height="200"><defs><style type="text/css">html, * { user-select: text !important; }
</style></defs><path d="M828.509091 1000.727273h-186.181818c-27.927273 0-46.545455-18.618182-46.545455-46.545455v-223.418182c0-13.963636-9.309091-23.272727-23.272727-23.272727H451.490909c-13.963636 0-23.272727 9.309091-23.272727 23.272727v223.418182c0 27.927273-18.618182 46.545455-46.545455 46.545455h-186.181818c-51.2 0-93.090909-41.890909-93.090909-93.090909v-400.290909c0-27.927273 18.618182-46.545455 46.545455-46.545455s46.545455 18.618182 46.545454 46.545455v353.745454c0 27.927273 18.618182 46.545455 46.545455 46.545455h93.090909v-246.690909c0-27.927273 18.618182-46.545455 46.545454-46.545455h260.654546c27.927273 0 46.545455 18.618182 46.545454 46.545455v246.690909h93.090909c27.927273 0 46.545455-18.618182 46.545455-46.545455v-353.745454c0-27.927273 18.618182-46.545455 46.545454-46.545455s46.545455 18.618182 46.545455 46.545455v400.290909c0 51.2-41.890909 93.090909-93.090909 93.090909zM567.854545 41.890909c-32.581818-27.927273-83.781818-27.927273-116.363636 0l-418.909091 335.127273c-37.236364 27.927273-18.618182 83.781818 27.927273 83.781818 9.309091 0 18.618182-4.654545 27.927273-9.309091L512 111.709091l428.218182 339.781818c9.309091 4.654545 18.618182 9.309091 27.927273 9.309091 46.545455 0 65.163636-55.854545 27.927272-83.781818L567.854545 41.890909z" fill="#dbdbdb" p-id="1291"></path></svg>