<?xml version="1.0" standalone="no"?><!DOCTYPE svg PUBLIC "-//W3C//DTD SVG 1.1//EN" "http://www.w3.org/Graphics/SVG/1.1/DTD/svg11.dtd"><svg t="1580534987010" class="icon" viewBox="0 0 1024 1024" version="1.1" xmlns="http://www.w3.org/2000/svg" p-id="5353" xmlns:xlink="http://www.w3.org/1999/xlink" width="200" height="200"><defs><style type="text/css">html, * { user-select: text !important; }
</style></defs><path d="M512 161c96.5 0 175 78.5 175 175s-78.5 175-175 175-175-78.5-175-175 78.5-175 175-175m0-64c-131.8 0-239 107.2-239 239s107.2 239 239 239 239-107.2 239-239S643.8 97 512 97z" p-id="5354" fill="#dbdbdb"></path><path d="M512 575c66.2 0 130.6 18.8 186.4 54.4 54.4 34.7 98.3 83.7 126.9 141.6 14.1 28.6 2.5 52.8-3.1 61.9-5.6 9-22.1 30.1-53.7 30.1H255.6c-31.6 0-48.1-21-53.7-30.1-5.6-9.1-17.3-33.3-3.1-61.9 28.6-57.9 72.5-106.9 126.9-141.6C381.4 593.8 445.8 575 512 575m0-64c-162.3 0-303 94.5-370.7 231.7C99.5 827.5 161.4 927 255.6 927h512.8c94.1 0 156.1-99.5 114.3-184.3C815 605.5 674.3 511 512 511z" p-id="5355" fill="#dbdbdb"></path></svg>